# xmcd CD database file generated by Grip 2.95
# 
# Track frame offsets:
#       182
#       27385
#       60257
#       84357
#       103927
#       129440
#       159822
#       178830
#       209267
#       243940
#       267902
#       292127
# 
# Disc length: 4465 seconds
# 
# Revision: 3
# Processed by: cddbd v1.4b41PL1 Copyright (c) Steve Scherf et al.
# Submitted via: Grip 2.95
# 
DISCID=a2116f0c
DTITLE=Sampler - Gaia 4
DYEAR=1900
DGENRE=
TTITLE0=X-Tron - Flash Memory
TTITLE1=GILGAMESH - Trescore V 4/2
TTITLE2=X-Dream - Automatic Overdrive
TTITLE3=Too Bass
TTITLE4=Goa
TTITLE5=Jungle
TTITLE6=Thing
TTITLE7=Tribalism
TTITLE8=Tales of Rythm(Repr.)
TTITLE9=Das Auge
TTITLE10=Emotional Contact
TTITLE11=Sub-Marine
EXTD=
EXTT0=
EXTT1=
EXTT2=
EXTT3=
EXTT4=
EXTT5=
EXTT6=
EXTT7=
EXTT8=
EXTT9=
EXTT10=
EXTT11=
PLAYORDER=
